<?xml version="1.0" standalone="no"?>
<!DOCTYPE svg PUBLIC "-//W3C//DTD SVG 20010904//EN"
 "http://www.w3.org/TR/2001/REC-SVG-20010904/DTD/svg10.dtd">
<svg version="1.0" xmlns="http://www.w3.org/2000/svg"
 width="280.000000pt" height="240.000000pt" viewBox="0 0 280.000000 240.000000"
 preserveAspectRatio="xMidYMid meet">

<g transform="translate(0.000000,240.000000) scale(0.100000,-0.100000)"
fill="#000000" stroke="none">
<path d="M2270 1531 c0 -28 -3 -30 -42 -33 l-43 -3 -9 -69 c-6 -51 -5 -75 3
-89 9 -14 10 -22 2 -30 -7 -7 -11 -107 -11 -305 l0 -293 23 7 c48 14 47 10 47
321 0 231 3 294 13 291 9 -4 13 -77 15 -312 l2 -306 30 15 30 16 0 294 0 295
22 0 21 0 -6 -310 c-4 -193 -3 -310 3 -310 18 0 39 46 49 110 15 92 14 622 -1
655 -9 20 -18 25 -50 25 -33 0 -38 3 -38 24 0 16 -7 26 -22 30 -36 9 -38 8
-38 -23z"/>
<path d="M776 1530 c-3 -14 -7 -36 -8 -50 -3 -21 -9 -26 -43 -30 l-40 -5 -3
-82 -3 -83 31 0 c29 0 31 -2 26 -27 -3 -16 -22 -136 -42 -267 l-35 -239 24
-25 25 -24 6 28 c3 16 19 121 36 234 34 230 40 263 46 257 2 -2 17 -105 34
-228 16 -123 32 -239 35 -258 l6 -34 25 25 25 24 -36 264 c-19 145 -35 264
-35 266 0 1 10 4 23 6 20 3 22 9 25 86 l3 82 -42 0 c-39 0 -41 1 -36 26 3 18
-3 34 -18 52 l-23 27 -6 -25z"/>
<path d="M2000 1523 c0 -60 -9 -73 -51 -73 l-39 0 0 -85 c0 -84 0 -85 25 -85
17 0 25 -6 25 -17 0 -10 -16 -130 -37 -266 l-36 -248 25 -25 25 -26 22 139
c11 76 28 190 37 253 10 63 20 118 24 123 3 4 21 -106 40 -245 18 -139 36
-256 40 -261 3 -4 16 3 28 15 l21 23 -34 250 c-41 296 -40 285 -16 285 14 0
20 10 25 46 3 26 6 64 6 85 0 39 0 39 -40 39 -39 0 -40 1 -40 33 0 20 -8 41
-18 50 -26 23 -32 21 -32 -10z"/>
<path d="M1054 1373 l-49 -138 -6 130 c-4 72 -7 131 -8 133 0 1 -12 2 -26 2
l-25 0 0 -390 0 -390 30 0 30 0 0 150 c0 93 4 150 10 150 6 0 10 -7 10 -16 0
-35 52 -250 66 -271 22 -35 52 -29 70 12 11 28 12 48 4 98 -5 34 -10 66 -10
71 0 5 -7 3 -15 -4 -9 -7 -18 -10 -22 -7 -9 9 -52 197 -53 228 0 15 20 82 44
149 l45 123 -20 53 c-11 30 -21 54 -23 54 -1 0 -24 -62 -52 -137z"/>
<path d="M440 1451 c0 -27 -3 -63 -6 -80 -6 -27 -4 -31 15 -31 20 0 21 -1 7
-35 -15 -35 -14 -40 49 -211 36 -96 65 -182 65 -190 0 -11 -9 -14 -37 -12 -31
2 -39 7 -41 26 -4 27 -14 28 -35 4 -21 -23 -22 -82 -2 -150 l16 -52 64 0 c89
0 100 17 100 155 0 108 10 74 -132 453 -4 8 6 12 32 12 28 0 38 -5 42 -20 6
-24 13 -25 38 -7 15 12 17 24 13 85 -3 40 -11 79 -18 87 -9 11 -33 15 -91 15
l-79 0 0 -49z"/>
<path d="M1190 1451 c0 -27 -3 -63 -6 -80 -6 -27 -4 -31 15 -31 20 0 21 -1 7
-35 -15 -35 -14 -40 49 -211 36 -96 65 -182 65 -190 0 -11 -9 -14 -37 -12 -31
2 -39 7 -41 26 -4 27 -14 28 -35 4 -21 -23 -22 -82 -2 -150 l16 -52 64 0 c86
0 98 17 103 144 l4 91 -65 175 c-36 96 -69 183 -72 193 -6 14 -1 17 30 17 28
0 38 -5 42 -20 6 -24 13 -25 38 -7 15 12 17 24 13 85 -3 40 -11 79 -18 87 -9
11 -33 15 -91 15 l-79 0 0 -49z"/>
<path d="M1420 1101 c0 -221 2 -401 5 -401 3 0 17 7 30 16 l25 16 1 197 c1
108 4 185 8 171 5 -20 15 -26 46 -30 l40 -5 0 -92 c0 -60 -5 -97 -13 -105 -7
-7 -12 -40 -12 -85 0 -82 12 -92 55 -48 24 23 25 28 25 178 0 98 4 157 11 164
7 7 9 31 5 65 -3 29 -9 122 -12 206 l-6 153 -27 -3 -26 -3 -3 -132 -3 -133
-44 0 -44 0 -3 133 -3 132 -27 3 -28 3 0 -400z"/>
<path d="M1676 1444 l-19 -45 42 -222 c22 -122 41 -230 41 -239 0 -9 -11 -43
-25 -75 -24 -56 -25 -60 -11 -133 l13 -75 30 65 c77 163 110 326 120 573 5
140 4 170 -8 178 -32 20 -36 9 -42 -138 -7 -144 -28 -274 -40 -243 -3 8 -20
94 -37 190 -39 220 -40 223 -64 164z"/>
<path d="M798 945 c-3 -6 -15 -40 -27 -77 -20 -59 -21 -72 -10 -108 7 -22 15
-37 19 -33 12 14 50 129 50 149 -1 27 -25 80 -32 69z"/>
<path d="M2002 882 c-25 -78 -26 -95 -9 -136 l13 -30 27 77 c25 69 26 81 16
117 -7 22 -15 40 -19 40 -3 0 -16 -31 -28 -68z"/>
</g>
</svg>
