<?xml version="1.0" standalone="no"?>
<!DOCTYPE svg PUBLIC "-//W3C//DTD SVG 20010904//EN"
 "http://www.w3.org/TR/2001/REC-SVG-20010904/DTD/svg10.dtd">
<svg version="1.0" xmlns="http://www.w3.org/2000/svg"
 width="285.000000pt" height="151.000000pt" viewBox="0 0 285.000000 151.000000"
 preserveAspectRatio="xMidYMid meet">

<g transform="translate(0.000000,151.000000) scale(0.100000,-0.100000)"
fill="#000000" stroke="none">
<path d="M864 1099 c-36 -10 -94 -60 -94 -80 0 -8 7 -4 15 8 22 31 77 63 127
72 34 7 36 9 13 9 -16 0 -44 -4 -61 -9z"/>
<path d="M1648 1099 c50 -9 105 -41 127 -72 8 -12 15 -16 15 -8 0 38 -97 92
-160 90 -15 -1 -8 -4 18 -10z"/>
<path d="M502 1088 c-15 -15 -15 -48 -1 -68 8 -12 9 -9 5 11 -3 15 1 34 10 47
16 23 6 30 -14 10z"/>
<path d="M2044 1078 c9 -13 13 -32 10 -47 -4 -20 -3 -23 5 -11 14 20 14 53 -1
68 -20 20 -30 13 -14 -10z"/>
<path d="M1000 1058 c-19 -5 -39 -13 -44 -18 -7 -7 65 11 99 24 20 8 -21 4
-55 -6z"/>
<path d="M1076 1061 c5 -4 25 -11 44 -14 35 -6 35 -6 10 8 -27 16 -70 21 -54
6z"/>
<path d="M1430 1055 c-25 -14 -25 -14 10 -8 40 6 65 23 35 23 -11 -1 -31 -7
-45 -15z"/>
<path d="M1505 1065 c6 -3 31 -11 58 -19 48 -14 65 -12 25 3 -25 9 -99 24 -83
16z"/>
<path d="M1225 1049 c-4 -6 -4 -13 -1 -16 3 -4 6 -1 6 6 0 8 6 11 16 7 8 -3
12 -2 9 4 -8 13 -22 13 -30 -1z"/>
<path d="M1304 1049 c-5 -8 -3 -9 6 -4 7 4 16 2 22 -6 8 -12 9 -12 6 0 -6 20
-24 25 -34 10z"/>
<path d="M919 1013 c-13 -16 -12 -17 4 -4 9 7 17 15 17 17 0 8 -8 3 -21 -13z"/>
<path d="M1620 1026 c0 -2 8 -10 18 -17 15 -13 16 -12 3 4 -13 16 -21 21 -21
13z"/>
<path d="M960 936 c0 -2 7 -7 16 -10 8 -3 12 -2 9 4 -6 10 -25 14 -25 6z"/>
<path d="M1575 930 c-3 -6 1 -7 9 -4 18 7 21 14 7 14 -6 0 -13 -4 -16 -10z"/>
<path d="M504 906 c11 -9 24 -16 30 -16 12 0 7 5 -24 19 -24 11 -24 11 -6 -3z"/>
<path d="M1765 890 c3 -5 8 -10 11 -10 2 0 4 5 4 10 0 6 -5 10 -11 10 -5 0 -7
-4 -4 -10z"/>
<path d="M558 883 c7 -3 16 -2 19 1 4 3 -2 6 -13 5 -11 0 -14 -3 -6 -6z"/>
<path d="M1988 883 c7 -3 16 -2 19 1 4 3 -2 6 -13 5 -11 0 -14 -3 -6 -6z"/>
<path d="M483 856 c15 -14 27 -27 27 -30 0 -3 -39 -7 -87 -9 -49 -1 337 -3
857 -3 520 0 907 2 860 5 -65 5 -84 9 -82 20 2 9 -2 11 -15 6 -10 -5 -48 -9
-85 -10 -37 0 -71 -4 -74 -8 -10 -10 -1226 -9 -1221 1 3 4 -28 7 -69 7 -60 1
-79 5 -106 24 l-33 22 28 -25z"/>
<path d="M613 873 c15 -2 39 -2 55 0 15 2 2 4 -28 4 -30 0 -43 -2 -27 -4z"/>
<path d="M1893 873 c15 -2 39 -2 55 0 15 2 2 4 -28 4 -30 0 -43 -2 -27 -4z"/>
<path d="M2079 863 c-13 -16 -12 -17 4 -4 16 13 21 21 13 21 -2 0 -10 -8 -17
-17z"/>
<path d="M801 728 c0 -9 -4 -25 -7 -35 -5 -17 -5 -17 6 0 6 10 9 25 7 35 -4
15 -5 15 -6 0z"/>
<path d="M930 725 c0 -8 2 -15 4 -15 2 0 6 7 10 15 3 8 1 15 -4 15 -6 0 -10
-7 -10 -15z"/>
<path d="M1291 724 c0 -11 3 -14 6 -6 3 7 2 16 -1 19 -3 4 -6 -2 -5 -13z"/>
<path d="M1506 687 c-10 -30 -16 -62 -14 -73 3 -11 9 3 16 34 7 30 17 62 22
73 6 10 7 19 2 19 -4 0 -16 -24 -26 -53z"/>
<path d="M1632 693 c-19 -73 -23 -111 -14 -117 5 -3 9 12 10 32 1 21 8 59 16
85 8 26 11 47 7 47 -4 0 -13 -21 -19 -47z"/>
<path d="M1757 667 c6 -100 11 -106 12 -15 1 42 -3 79 -8 82 -4 3 -6 -27 -4
-67z"/>
<path d="M1832 723 c-6 -11 -7 -25 -3 -32 6 -9 10 -4 14 16 6 34 2 41 -11 16z"/>
<path d="M1383 715 c-3 -9 -3 -18 -1 -21 3 -3 8 4 11 16 6 23 -1 27 -10 5z"/>
<path d="M1131 688 c-1 -20 7 -31 28 -44 16 -10 34 -27 40 -38 8 -17 10 -18
10 -4 1 9 -14 29 -33 43 -19 15 -37 36 -39 48 -4 18 -5 18 -6 -5z"/>
<path d="M1425 669 c-4 -22 -3 -45 1 -49 5 -5 10 14 11 41 2 60 -3 63 -12 8z"/>
<path d="M721 688 c-1 -9 14 -29 33 -43 19 -15 37 -36 39 -48 l4 -22 2 22 c1
14 -10 31 -30 45 -17 13 -35 32 -39 43 -7 16 -9 17 -9 3z"/>
<path d="M913 665 c-6 -19 -8 -35 -3 -35 8 0 23 60 17 67 -2 1 -8 -13 -14 -32z"/>
<path d="M1007 651 c-4 -17 -3 -21 5 -13 5 5 8 16 6 23 -3 8 -7 3 -11 -10z"/>
<path d="M1263 654 c-3 -7 -3 -19 0 -26 4 -8 6 -7 6 4 1 10 11 18 29 20 l27 3
-28 6 c-19 5 -30 2 -34 -7z"/>
<path d="M1335 660 c-3 -5 -1 -10 4 -10 6 0 11 5 11 10 0 6 -2 10 -4 10 -3 0
-8 -4 -11 -10z"/>
<path d="M1816 639 c-3 -17 -5 -43 -5 -58 1 -14 5 -2 10 28 10 58 6 83 -5 30z"/>
<path d="M838 641 c12 -7 11 -14 -2 -39 -9 -17 -16 -35 -16 -39 1 -4 10 10 22
32 11 22 26 43 32 47 6 4 -2 8 -19 8 -20 0 -26 -3 -17 -9z"/>
<path d="M1553 643 c9 -2 23 -2 30 0 6 3 -1 5 -18 5 -16 0 -22 -2 -12 -5z"/>
<path d="M1324 606 c-3 -21 -4 -39 -1 -42 2 -3 8 11 11 32 4 20 5 38 2 41 -2
3 -8 -11 -12 -31z"/>
<path d="M1545 599 c-9 -17 -15 -33 -13 -35 3 -2 12 12 21 31 21 43 13 47 -8
4z"/>
<path d="M697 606 c-3 -8 0 -22 7 -32 11 -15 12 -13 8 14 -5 36 -7 38 -15 18z"/>
<path d="M900 601 c0 -11 4 -22 9 -25 4 -3 6 6 3 19 -5 30 -12 33 -12 6z"/>
<path d="M1039 602 c5 -10 18 -25 27 -33 11 -9 9 -2 -6 19 -26 35 -36 42 -21
14z"/>
<path d="M1103 604 c-3 -9 2 -23 13 -32 17 -16 17 -16 5 0 -7 10 -11 25 -7 33
3 8 3 15 0 15 -2 0 -7 -7 -11 -16z"/>
<path d="M1686 583 c-6 -14 -5 -15 5 -6 7 7 10 15 7 18 -3 3 -9 -2 -12 -12z"/>
<path d="M428 463 c50 -2 92 -7 92 -11 0 -4 33 -7 74 -7 41 0 72 3 69 8 -2 4
275 7 617 7 342 0 619 -3 617 -7 -3 -5 28 -8 69 -8 41 0 74 3 74 7 0 4 42 9
93 11 50 1 -333 3 -853 3 -520 0 -903 -2 -852 -3z"/>
<path d="M469 413 c-13 -16 -12 -17 4 -4 16 13 21 21 13 21 -2 0 -10 -8 -17
-17z"/>
<path d="M613 403 c15 -2 39 -2 55 0 15 2 2 4 -28 4 -30 0 -43 -2 -27 -4z"/>
<path d="M1898 403 c12 -2 32 -2 45 0 12 2 2 4 -23 4 -25 0 -35 -2 -22 -4z"/>
<path d="M558 393 c7 -3 16 -2 19 1 4 3 -2 6 -13 5 -11 0 -14 -3 -6 -6z"/>
<path d="M504 374 c-18 -14 -18 -14 6 -3 31 14 36 19 24 19 -6 0 -19 -7 -30
-16z"/>
<path d="M970 350 c-9 -6 -10 -10 -3 -10 6 0 15 5 18 10 8 12 4 12 -15 0z"/>
<path d="M1577 349 c7 -7 15 -10 18 -7 3 3 -2 9 -12 12 -14 6 -15 5 -6 -5z"/>
<path d="M1043 335 c0 -8 4 -12 9 -9 5 3 6 10 3 15 -9 13 -12 11 -12 -6z"/>
<path d="M910 276 c0 -2 8 -10 18 -17 15 -13 16 -12 3 4 -13 16 -21 21 -21 13z"/>
<path d="M1629 263 c-13 -16 -12 -17 4 -4 16 13 21 21 13 21 -2 0 -10 -8 -17
-17z"/>
<path d="M494 243 c-7 -27 4 -54 25 -61 9 -3 7 4 -4 21 -10 16 -14 34 -10 47
3 11 4 20 1 20 -3 0 -9 -12 -12 -27z"/>
<path d="M770 260 c0 -37 118 -99 166 -87 13 3 9 5 -10 6 -40 1 -112 37 -136
68 -11 14 -20 20 -20 13z"/>
<path d="M1777 256 c-9 -24 -80 -66 -128 -76 l-44 -9 48 4 c26 3 61 12 77 20
30 15 67 61 58 71 -3 3 -8 -2 -11 -10z"/>
<path d="M2055 252 c4 -14 0 -32 -9 -47 -17 -26 -9 -34 12 -13 15 15 15 48 1
68 -8 12 -9 10 -4 -8z"/>
<path d="M955 240 c5 -9 96 -33 101 -27 2 2 -21 11 -51 19 -30 8 -52 12 -50 8z"/>
<path d="M1220 243 c0 -19 21 -27 33 -13 9 10 9 11 -2 5 -8 -4 -17 -2 -22 6
-6 9 -9 10 -9 2z"/>
<path d="M1330 241 c0 -8 -7 -11 -17 -6 -15 5 -16 4 -5 -6 9 -10 15 -10 24 -1
6 6 9 15 5 19 -4 3 -7 1 -7 -6z"/>
<path d="M1550 229 c-37 -12 -43 -16 -20 -12 41 7 80 20 80 28 0 3 -1 5 -2 4
-2 -1 -28 -9 -58 -20z"/>
<path d="M1110 233 c-33 -6 -51 -23 -24 -23 11 0 29 7 40 15 10 8 17 14 14 13
-3 0 -16 -3 -30 -5z"/>
<path d="M1435 223 c21 -14 59 -18 51 -4 -3 5 -20 11 -37 13 -29 5 -30 4 -14
-9z"/>
</g>
</svg>
